<?xml version="1.0" encoding="utf-8"?>
<!-- Generator: Adobe Illustrator 21.0.0, SVG Export Plug-In . SVG Version: 6.00 Build 0)  -->
<svg version="1.1" xmlns="http://www.w3.org/2000/svg" xmlns:xlink="http://www.w3.org/1999/xlink" x="0px" y="0px"
	 viewBox="0 0 1920 1080" style="enable-background:new 0 0 1920 1080;" xml:space="preserve">
<style type="text/css">
	.st0{fill:none;stroke:#69BC45;stroke-miterlimit:10;}
	.st1{fill:none;}
	.st2{fill:#FFFFFF;}
	.st3{fill:#231F20;}
</style>
<g id="Layer_2">
</g>
<g id="Layer_1">
	<path class="st0" d="M-218.5-714.7"/>
	<path class="st1" d="M-218.5-714.7"/>
	<g>
		<polygon points="1815.8,230.7 0,325.9 0,681.3 104.5,785.9 1920.4,785.9 1920.4,335.3 		"/>
		<path class="st2" d="M479.5,353.1v275.9h182.4V343.5L479.5,353.1z M609.6,581.6l-77.9,0.7V397.2l77.9-3.4V581.6z"/>
		<polygon class="st2" points="393,470.9 302.6,473.8 302.6,362.4 250.3,365.1 250.3,629.1 302.6,629.1 302.5,518.1 393,516.2 
			393,629.1 445.2,629.1 445.2,354.9 393,357.6 		"/>
		<path class="st2" d="M1192.3,446.5l0-131.1l-166,8.7v304.9h214.2v-184L1192.3,446.5z M1074.4,373.4l69.7-3V448l-69.7,2.1V373.4z
			 M1192.3,576.8l-117.9,1v-76.6l69.7-1.5l48.2-1.1V576.8z"/>
		<polygon class="st2" points="1730,287.5 1673.5,290.5 1618.1,405.3 1563.6,296.2 1510,299 1590.7,461.9 1510,629.1 1563.6,629.1 
			1618.1,517.2 1673.5,629.1 1730,629.1 1645.7,460.5 		"/>
		<path class="st2" d="M1274.7,311.4v317.6h206.5V300.6L1274.7,311.4z M1428.9,574.7l-102,0.9V361.9l102-4.4V574.7z"/>
		<polygon class="st2" points="52.3,375.5 52.3,523.6 169,521.2 169,585.8 99.3,586.4 99.3,543.7 52.3,544.5 52.3,629.1 
			216.1,629.1 216.1,476.4 99.3,480 99.3,416.2 169,413.1 169,456.4 216.1,454.6 216.1,366.9 		"/>
		<path class="st3" d="M441.2,629.1"/>
		<polygon class="st2" points="954.4,327.9 912.4,529.5 869.2,332.4 813.6,335.3 771.8,531.7 732.5,339.6 684.2,342.1 743.6,629.1 
			799.9,629.1 842.1,432.2 884.9,629.1 934.9,629.1 1001.4,325.5 		"/>
	</g>
	<path class="st3" d="M2090.3,859.7"/>
</g>
<g id="Layer_3">
</g>
<g id="Layer_4">
</g>
</svg>
